<svg xmlns="http://www.w3.org/2000/svg" width="64" height="90" viewBox="0 0 362.8 512" style="enable-background:new 0 0 362.8 512" xml:space="preserve"><path d="M33.8 0h23v22.8H78V0h23v69H78V46H57v23H33.8m97.6-46h-20.3V0h63.7v23h-20.4v46h-23m53.5-69H209l14.8 24.3L238.6 0h24.1v69h-23V34.8l-16.1 24.8-16.1-24.8V69h-22.6m89.2-69h23v46.2h32.6V69h-55.6"/><path d="M33 471 0 100.6h362.8l-33 370.2L181.1 512" style="fill:#e44d26"/><path d="M181.4 480.5V131h148.3l-28.3 316" style="fill:#f16529"/><path d="M67.4 176.3h114v45.4h-64.2l4.2 46.5h60v45.3H79.8m2 22.8h45.6l3.2 36.3 50.8 13.6v47.4l-93.2-26" style="fill:#ebebeb"/><path d="M295 176.3H181.2v45.4h109.6m-4.1 46.5H181.2v45.4h56l-5.3 59-50.7 13.6v47.2l93-25.8" style="fill:#fff"/></svg>