<svg width="28" height="28" viewBox="0 0 28 28" fill="none" xmlns="http://www.w3.org/2000/svg">
<path d="M18.4649 6.19141C19.8829 6.19141 21.0196 5.05469 21.0196 3.63672C21.0196 2.23047 19.8829 1.09375 18.4649 1.09375C17.047 1.09375 15.9102 2.23047 15.9102 3.63672C15.9102 5.05469 17.047 6.19141 18.4649 6.19141ZM14.1524 26.8164C19.2618 26.8164 22.672 23.4062 22.672 18.2969C22.672 15.6133 21.3946 14.043 19.004 14.043H17.4337C17.1642 14.043 16.9884 13.8672 17.0938 13.5391L18.172 10.2695C18.6642 8.76953 17.961 7.41016 16.297 6.98828L11.4571 5.76953C10.9884 5.65234 10.6368 5.73438 10.2149 5.98047L5.51571 8.62891C4.96493 8.94531 4.83603 9.75391 5.22274 10.2695C5.59774 10.7969 6.26571 10.8906 6.86337 10.5859L11.1759 8.30078L13.6954 8.96875C14.1876 9.10938 14.3751 9.44922 14.211 9.90625L12.8868 13.6211C12.2774 15.3672 13.3087 16.8555 14.9962 16.8555H19.3556C20.2579 16.8555 20.8907 17.3945 20.8907 18.2969C20.8907 22.3398 18.2071 25.0352 14.1642 25.0352C10.1212 25.0352 7.41415 22.3398 7.41415 18.2969C7.41415 16.9023 7.82431 15.6836 8.50399 14.6641C9.26571 13.5273 7.75399 12.5781 6.95712 13.7734C6.13681 15.0273 5.6329 16.5625 5.6329 18.2969C5.6329 23.4062 9.03134 26.8164 14.1524 26.8164ZM22.7071 26.8164C23.422 26.8164 23.9962 26.2422 23.9962 25.5273C23.9962 24.8125 23.422 24.2383 22.7071 24.2383C21.9923 24.2383 21.4181 24.8125 21.4181 25.5273C21.4181 26.2422 21.9923 26.8164 22.7071 26.8164Z" fill="#2965f1"/>
</svg>
