<svg viewBox="0 0 390 512" xmlns="http://www.w3.org/2000/svg"><g fill="none" fill-rule="evenodd"><path d="M388.62 123.087 266.033.5H2A1.5 1.5 0 0 0 .5 2v508a1.5 1.5 0 0 0 1.5 1.5h385.12a1.5 1.5 0 0 0 1.5-1.5V123.087Z" stroke="#52BA63" fill="#18501B"/><path d="M60.98 215.04h12.39v71.68H61.082l-9.012-31.334v31.334H39.782v-71.68h12.186l9.011 29.389V215.04Zm39.73 16.998h12.39v47.104c0 2.048-.733 3.823-2.2 5.325-1.469 1.502-3.26 2.253-5.377 2.253H87.091c-2.116 0-3.908-.75-5.376-2.253-1.468-1.502-2.201-3.277-2.201-5.325v-47.104h12.288v42.292h8.908v-42.292Zm52.224 7.578v47.104h-12.39v-42.394h-8.909v42.394h-12.288v-54.682h26.01c2.116 0 3.908.734 5.376 2.202 1.468 1.468 2.201 3.26 2.201 5.376Zm26.317 34.714v-42.292h12.39v47.002c0 2.116-.75 3.925-2.252 5.427-1.502 1.502-3.311 2.253-5.427 2.253h-18.535c-2.116 0-3.908-.75-5.376-2.253-1.468-1.502-2.201-3.31-2.201-5.427v-14.848l12.39-2.867v13.005h9.011Zm39.834-42.292h12.39v47.104c0 2.048-.734 3.823-2.201 5.325-1.468 1.502-3.26 2.253-5.376 2.253h-18.432c-2.117 0-3.909-.75-5.376-2.253-1.468-1.502-2.202-3.277-2.202-5.325v-47.104h12.288v42.292h8.909v-42.292Zm39.936 42.394v-9.83l12.288-2.868v17.408c0 2.117-.734 3.909-2.202 5.376-1.468 1.468-3.26 2.202-5.376 2.202H245.3c-2.116 0-3.908-.734-5.376-2.202-1.468-1.467-2.201-3.26-2.201-5.376v-39.526c0-2.116.733-3.908 2.201-5.376 1.468-1.468 3.26-2.202 5.376-2.202h18.432c2.116 0 3.908.734 5.376 2.202 1.468 1.468 2.202 3.26 2.202 5.376v10.342l-12.288 2.868v-8.5h-9.011v30.106h9.01Zm42.086-15.155 11.674 27.443h-12.39l-9.217-21.3h-1.433v21.3h-12.288v-54.682h12.288v21.095h1.331l9.011-21.095h12.698l-11.674 27.239Zm26.931-6.144h13.722c2.116 0 3.908.734 5.376 2.201 1.468 1.468 2.202 3.26 2.202 5.376v18.432c0 2.048-.734 3.823-2.202 5.325-1.468 1.502-3.26 2.253-5.376 2.253h-18.432c-2.116 0-3.908-.75-5.376-2.253-1.468-1.502-2.202-3.277-2.202-5.325v-6.246l12.288-2.97v4.404h8.91v-8.91h-13.62c-2.116 0-3.908-.733-5.376-2.2-1.468-1.469-2.202-3.26-2.202-5.377v-18.33c0-2.047.734-3.805 2.202-5.273 1.468-1.468 3.26-2.202 5.376-2.202h18.432c2.116 0 3.908.734 5.376 2.202 1.468 1.468 2.202 3.226 2.202 5.274v6.144l-12.39 2.867v-4.199h-8.91v8.807Z" fill="#52BA63"/></g></svg>